<?xml version="1.0" encoding="utf-8"?>
<!-- Generator: Adobe Illustrator 16.0.0, SVG Export Plug-In . SVG Version: 6.00 Build 0)  -->
<!DOCTYPE svg PUBLIC "-//W3C//DTD SVG 1.1//EN" "http://www.w3.org/Graphics/SVG/1.1/DTD/svg11.dtd">
<svg version="1.1" xmlns="http://www.w3.org/2000/svg" xmlns:xlink="http://www.w3.org/1999/xlink" x="0px" y="0px"
	 width="1397.906px" height="480.756px" viewBox="0 0 1397.906 480.756" enable-background="new 0 0 1397.906 480.756"
	 xml:space="preserve">
<g id="Warstwa_1">
	<g>
		<defs>
			<path id="SVGID_1_" d="M314.121,316.586c1.249-1.309,2.437-2.703,3.497-4.246c10.477-15.295,6.567-36.182-8.722-46.658
				c-3.992-2.738-11.47-7.033-20.969-7.502c-51.737-2.555-53.083-2.555-53.083-2.555L314.121,316.586z"/>
		</defs>
		<clipPath id="SVGID_2_">
			<use xlink:href="#SVGID_1_"  overflow="visible"/>
		</clipPath>
		
			<linearGradient id="SVGID_3_" gradientUnits="userSpaceOnUse" x1="68.4473" y1="410.6743" x2="69.4529" y2="410.6743" gradientTransform="matrix(55.7993 -55.7993 -55.7993 -55.7993 19357.0977 27040.998)">
			<stop  offset="0" style="stop-color:#D0661C"/>
			<stop  offset="1" style="stop-color:#D67E1C"/>
		</linearGradient>
		<polygon clip-path="url(#SVGID_2_)" fill="url(#SVGID_3_)" points="204.364,286.106 281.469,209 358.574,286.106 281.469,363.211 
					"/>
	</g>
	<g>
		<defs>
			<path id="SVGID_4_" d="M210.335,343.661c-1.972,16.572,1.323,30.189,4.229,37.229c11.125,26.984,42.096,39.389,68.702,28.42
				c26.597-10.969,39.688-43.639,28.561-70.625c-2.904-7.039-7.712-15.664-20.439-25.674l-70.783-55.666L210.335,343.661z
				 M117.807,269.815c-13.121,1.893-23.758,6.256-29.379,9.975c-21.538,14.254-27.447,43.268-13.19,64.807
				c14.25,21.539,43.265,27.445,64.804,13.193c5.623-3.725,13.796-11.812,20.668-23.143l47.205-77.85L117.807,269.815z
				 M218.998,67.464c-28.483,0-51.57,23.089-51.57,51.571c0,7.435,2.464,19.873,8.702,33.089l42.869,90.793l42.863-90.794
				c6.244-13.218,8.707-25.655,8.707-33.088C270.568,90.553,247.481,67.464,218.998,67.464z"/>
		</defs>
		<clipPath id="SVGID_5_">
			<use xlink:href="#SVGID_4_"  overflow="visible"/>
		</clipPath>
		
			<linearGradient id="SVGID_6_" gradientUnits="userSpaceOnUse" x1="68.4658" y1="410.7183" x2="69.4716" y2="410.7183" gradientTransform="matrix(199.6266 140.1959 140.1959 -199.6266 -71111.9453 72596.9141)">
			<stop  offset="0" style="stop-color:#C8421B"/>
			<stop  offset="1" style="stop-color:#E2A11B"/>
		</linearGradient>
		<polygon clip-path="url(#SVGID_5_)" fill="url(#SVGID_6_)" points="147.511,-55.748 488.89,183.999 236.424,543.489 
			-104.955,303.743 		"/>
	</g>
</g>
<g id="PL" display="none">
	<g display="inline">
		<rect x="386.617" y="152.85" fill="#040507" width="7.239" height="67.571"/>
		<path fill="#040507" d="M432.994,220.421V182.87c0-4.632-1.545-11.1-10.038-11.1c-3.284,0-7.239,1.35-10.33,5.501v-4.729h-7.239
			v47.879h7.239v-32.818c0-2.995,1.158-8.787,7.046-8.787c4.635,0,6.083,3.765,6.083,7.432v34.173H432.994z"/>
		<path fill="#040507" d="M470.373,207.486c0-8.01-3.762-10.812-8.204-13.031l-5.985-2.899c-3.09-1.445-5.695-2.99-5.695-6.756
			c0-4.827,2.605-6.177,6.178-6.177c2.991,0,5.985,1.156,6.467,6.563h7.239c-0.192-5.985-2.799-13.417-13.32-13.417
			c-9.559,0-13.804,5.889-13.804,12.357c0,4.921,0.868,9.266,7.915,12.644l5.889,2.898c4.923,2.413,6.081,4.246,6.081,7.818
			c0,4.152-1.93,6.95-6.95,6.95c-3.765,0-6.081-1.835-6.468-6.95h-7.335c0.192,6.661,3.28,13.706,13.995,13.706
			C468.926,221.192,470.373,211.446,470.373,207.486z"/>
		<path fill="#040507" d="M485.319,217.431c2.605,2.894,7.143,2.99,9.844,2.99h2.126v-6.562h-0.774c-1.158,0-3.185,0-4.535-1.161
			c-1.836-1.542-1.933-4.15-1.933-5.308v-29.056h6.757v-5.792h-6.757v-14.574h-7.239v14.574h-5.116v5.792h5.116v29.925
			C482.808,211.057,482.904,214.822,485.319,217.431z"/>
		<path fill="#040507" d="M528.654,172.542l-7.336,34.848h-0.192l-9.655-34.848h-7.624l14.094,47.205l-1.353,5.693
			c-1.351,5.697-2.798,8.107-7.336,8.107h-1.351v6.567h1.64c7.434,0,10.812-2.894,12.839-11.199l13.61-56.373H528.654z"/>
		<path fill="#040507" d="M562.311,213.859h-0.774c-1.158,0-3.185,0-4.535-1.161c-1.836-1.542-1.933-4.15-1.933-5.308v-29.056h6.757
			v-5.792h-6.757v-14.574h-7.24v14.574h-5.115v5.792h5.115v29.925c0,2.798,0.097,6.563,2.511,9.172
			c2.606,2.894,7.144,2.99,9.845,2.99h2.126V213.859z"/>
		<path fill="#040507" d="M591.554,215.691v4.73h7.239v-47.879h-7.239v32.823c0,2.991-1.158,8.783-7.047,8.783
			c-4.634,0-6.081-3.765-6.081-7.434v-34.172h-7.239v37.549c0,4.635,1.544,11.101,10.039,11.101
			C584.507,221.192,588.465,219.844,591.554,215.691z"/>
		<path fill="#040507" d="M621.731,212.698c-1.834-1.542-1.931-4.15-1.931-5.308v-29.056h6.756v-5.792H619.8v-14.574h-7.239v14.574
			h-5.116v5.792h5.116v29.925c0,2.798,0.096,6.563,2.51,9.172c2.606,2.894,7.144,2.99,9.845,2.99h2.125v-6.562h-0.774
			C625.111,213.859,623.083,213.859,621.731,212.698z"/>
		<path fill="#040507" d="M675.267,221.385c11.584,0,16.027-6.467,16.027-16.118v-2.511h-7.337v2.123
			c0,7.819-4.637,9.461-8.401,9.461c-6.756,0-7.816-6.37-7.816-8.782v-36.394c0-3.671,0.674-10.233,8.301-10.233
			c6.952,0,7.916,6.081,7.916,8.493v3.573h7.044v-4.344c0-10.712-6.948-14.767-15.35-14.767c-9.841,0-15.152,7.045-15.152,14.672
			v39.963C660.499,210.383,661.755,221.385,675.267,221.385z"/>
		<path fill="#040507" d="M707.917,187.603c0-2.994,1.156-8.786,7.045-8.786c4.637,0,6.081,3.764,6.081,7.431v34.173h7.241v-37.55
			c0-4.632-1.545-11.101-10.039-11.101c-3.283,0-7.237,1.351-10.328,5.501V152.85h-7.241v67.571h7.241V187.603z"/>
		<path fill="#040507" d="M752.748,221.192c11.099,0,13.318-8.783,13.318-13.514v-0.675h-7.236v0.579
			c0,3.96-1.835,6.565-6.082,6.565c-4.444,0-6.759-2.22-6.759-7.338v-7.624h20.27v-13.71c0-4.148-2.605-13.706-13.993-13.706
			c-11.487,0-13.515,9.558-13.515,13.321v22.203C738.75,211.446,740.778,221.192,752.748,221.192z M745.989,185.959
			c0-2.992,1.448-7.143,6.565-7.143c5.019,0,6.467,3.669,6.467,6.755v8.209h-13.032V185.959z"/>
		<path fill="#040507" d="M823.586,220.421v-37.358c0-6.755-3.188-11.293-9.847-11.293c-4.154,0-7.049,1.253-10.429,5.501
			c-2.219-3.765-4.825-5.501-9.457-5.501c-2.898,0-6.759,0.964-10.236,5.501v-4.729h-7.235v47.879h7.235v-32.818
			c0-4.444,2.124-8.787,6.761-8.787c4.824,0,5.984,4.44,5.984,7.432v34.173h7.237v-32.818c0-4.636,2.128-8.787,6.664-8.787
			c4.343,0,6.081,3.284,6.081,7.432v34.173H823.586z"/>
		<rect x="834.471" y="172.542" fill="#040507" width="7.241" height="47.879"/>
		<rect x="834.471" y="154.2" fill="#040507" width="7.241" height="7.047"/>
		<rect x="852.49" y="154.2" fill="#040507" width="7.24" height="7.047"/>
		<rect x="852.49" y="172.542" fill="#040507" width="7.24" height="47.879"/>
		<path fill="#040507" d="M922.882,155.94c-2.701-2.61-6.562-4.055-11.388-4.055c-4.829,0-8.69,1.445-11.391,4.055
			c-4.44,4.148-4.829,8.974-4.829,13.997v33.396c0,5.022,0.389,9.848,4.829,13.996c2.7,2.61,6.562,4.055,11.391,4.055
			c4.826,0,8.687-1.445,11.388-4.055c4.44-4.148,4.829-8.974,4.829-13.996v-33.396C927.711,164.915,927.323,160.088,922.882,155.94z
			 M920.47,204.878c0,2.414-0.192,4.827-2.509,7.146c-1.352,1.254-3.572,2.315-6.467,2.315c-2.898,0-5.118-1.061-6.466-2.315
			c-2.321-2.319-2.514-4.732-2.514-7.146v-36.487c0-2.414,0.192-4.827,2.514-7.049c1.348-1.35,3.567-2.412,6.466-2.412
			c2.895,0,5.115,1.062,6.467,2.412c2.316,2.222,2.509,4.635,2.509,7.049V204.878z"/>
		<path fill="#040507" d="M945.985,180.07v-7.528h-7.241v47.879h7.241v-27.898c0-10.52,6.658-12.645,11.971-12.645h1.347v-8.108
			C955.542,171.865,951.098,173.12,945.985,180.07z"/>
		<path fill="#040507" d="M995.187,226.214v-53.672h-7.237v4.729c-3.087-4.151-7.044-5.501-10.328-5.501
			c-8.492,0-10.039,6.468-10.039,11.1v26.738c0,4.636,1.547,11.102,10.039,11.102c3.284,0,7.241-1.351,10.328-5.503v11.874
			c0,2.705-2.026,6.466-6.852,6.466c-2.508,0-5.792-0.578-6.567-5.887h-6.948c0,8.689,5.407,12.937,13.223,12.937
			C991.908,240.596,995.187,232.103,995.187,226.214z M980.906,213.666c-4.637,0-6.086-3.767-6.086-7.434v-19.984
			c0-3.667,1.449-7.431,6.086-7.431c5.889,0,7.044,5.791,7.044,8.786v17.276C987.95,207.873,986.794,213.666,980.906,213.666z"/>
		<path fill="#040507" d="M1025.916,215.691h0.097v4.73h7.241v-34.269c0-6.178-2.412-14.382-13.515-14.382
			c-7.815,0-13.997,4.827-13.997,12.935h6.953c0.77-4.731,4.053-5.888,6.562-5.888c4.829,0,6.756,3.764,6.756,6.466v7.048
			c-4.146-0.387-5.691-0.387-6.756-0.387c-10.713,0-13.997,5.694-13.997,15.834c0,7.622,2.22,13.415,9.848,13.415
			C1021.188,221.193,1023.503,218.491,1025.916,215.691z M1018.678,215.015c-4.149,0-6.178-1.833-6.178-8.59
			c0-7.045,4.44-9.268,8.591-9.268c1.16,0,2.898,0.192,4.921,0.481v8.401C1026.012,211.057,1021.668,215.015,1018.678,215.015z"/>
		<path fill="#040507" d="M1064.493,186.248v34.173h7.241V182.87c0-4.632-1.545-11.1-10.039-11.1c-3.283,0-7.241,1.35-10.327,5.501
			v-4.729h-7.242v47.879h7.242v-32.818c0-2.995,1.155-8.787,7.044-8.787C1063.043,178.816,1064.493,182.581,1064.493,186.248z"/>
		<rect x="1082.579" y="172.542" fill="#040507" width="7.236" height="47.879"/>
		<rect x="1082.579" y="154.2" fill="#040507" width="7.236" height="7.047"/>
		<path fill="#040507" d="M1114.291,171.77c-11.969,0-13.997,9.848-13.997,13.801v21.722c0,4.153,2.028,13.899,13.997,13.899
			c11.103,0,13.997-8.783,13.997-13.513v-1.929h-7.237v0.578c0,5.214-2.509,7.819-6.76,7.819c-4.438,0-6.756-2.701-6.756-7.819
			v-19.692c0-5.406,2.995-7.82,6.756-7.82c3.669,0,6.76,2.414,6.76,7.82v0.676h7.237v-2.125
			C1128.288,180.65,1125.682,171.77,1114.291,171.77z"/>
		<polygon fill="#040507" points="1137.044,178.623 1154.23,178.623 1135.792,214.629 1135.792,220.421 1161.952,220.421 
			1161.952,214.34 1143.612,214.34 1161.952,178.334 1161.952,172.542 1137.044,172.542 		"/>
		<path fill="#040507" d="M1188.722,171.77c-3.283,0-7.241,1.35-10.332,5.501v-4.729h-7.237v47.879h7.237v-32.818
			c0-2.995,1.16-8.787,7.049-8.787c4.632,0,6.081,3.765,6.081,7.432v34.173h7.237V182.87
			C1198.757,178.238,1197.216,171.77,1188.722,171.77z"/>
		<path fill="#040507" d="M1222.743,171.769c-11.486,0-13.515,9.558-13.515,13.321v22.203c0,4.153,2.028,13.899,13.998,13.899
			c11.098,0,13.317-8.783,13.317-13.514v-0.675h-7.236v0.579c0,3.96-1.835,6.565-6.081,6.565c-4.445,0-6.761-2.22-6.761-7.338
			v-7.624h20.271v-13.71C1236.736,181.327,1234.131,171.769,1222.743,171.769z M1229.499,193.78h-13.033v-7.821
			c0-2.992,1.449-7.143,6.566-7.143c5.018,0,6.467,3.669,6.467,6.755V193.78z"/>
		<path fill="#040507" d="M1246.994,225.732c0,1.637-0.098,7.333-6.757,7.333h-0.481v7.049h1.927
			c8.691,0,12.553-4.731,12.553-13.611v-53.961h-7.241V225.732z"/>
		<rect x="1246.994" y="154.2" fill="#040507" width="7.241" height="7.047"/>
		<path fill="#040507" d="M400.903,253.959h-14.672v67.572h7.24v-27.9h8.882c9.651,0,15.25-7.816,15.25-16.506v-5.986
			C417.604,261.875,413.066,253.959,400.903,253.959z M410.365,278.284c0,4.73-3.38,9.168-10.04,9.168h-6.853v-27.219h6.948
			c6.758,0,9.945,3.863,9.945,10.039V278.284z"/>
		<path fill="#040507" d="M440.251,272.877c-11.778,0-13.803,9.943-13.803,13.516v22.201c0,3.861,2.025,13.709,13.803,13.709
			c11.777,0,13.802-9.848,13.802-13.709v-22.297C454.053,282.821,452.028,272.877,440.251,272.877z M446.814,307.438
			c0,5.211-2.509,7.816-6.563,7.816c-4.249,0-6.565-2.799-6.565-7.816v-19.693c0-5.311,2.994-7.818,6.565-7.818
			c3.572,0,6.563,2.508,6.563,7.818V307.438z"/>
		<path fill="#040507" d="M471.763,309.563v-55.604h-7.24v56.951c0,6.273,4.054,10.621,11.391,10.621h2.219v-6.664h-1.061
			C472.63,314.868,471.763,311.489,471.763,309.563z"/>
		<path fill="#040507" d="M499.557,279.735c2.991,0,5.985,1.154,6.468,6.561h7.239c-0.192-5.982-2.799-13.418-13.32-13.418
			c-9.559,0-13.805,5.889-13.805,12.355c0,4.924,0.869,9.268,7.916,12.648l5.889,2.895c4.923,2.412,6.081,4.246,6.081,7.818
			c0,4.15-1.93,6.951-6.95,6.951c-3.766,0-6.081-1.834-6.468-6.951h-7.336c0.192,6.658,3.28,13.709,13.996,13.709
			c12.55,0,13.997-9.75,13.997-13.709c0-8.012-3.763-10.811-8.205-13.029l-5.984-2.898c-3.09-1.449-5.696-2.99-5.696-6.756
			C493.379,281.083,495.985,279.735,499.557,279.735z"/>
		<polygon fill="#040507" points="551.732,273.647 544.105,273.647 530.108,297.592 530.108,253.959 522.869,253.959 
			522.869,321.532 530.108,321.532 530.108,308.016 535.61,298.844 546.229,321.532 554.049,321.532 540.052,292.475 		"/>
		<rect x="562.006" y="255.307" fill="#040507" width="7.239" height="7.049"/>
		<rect x="562.005" y="273.647" fill="#040507" width="7.239" height="47.885"/>
		<path fill="#040507" d="M593.238,272.877c-11.486,0-13.513,9.559-13.513,13.322v22.203c0,4.148,2.027,13.898,13.997,13.898
			c11.101,0,13.32-8.781,13.32-13.516v-0.672h-7.239v0.578c0,3.957-1.833,6.561-6.081,6.561c-4.441,0-6.757-2.215-6.757-7.332
			v-7.627h20.27v-13.709C607.235,282.436,604.63,272.877,593.238,272.877z M599.996,294.885h-13.031v-7.818
			c0-2.99,1.447-7.141,6.563-7.141c5.02,0,6.468,3.668,6.468,6.756V294.885z"/>
		<rect x="617.488" y="255.307" fill="#040507" width="7.239" height="7.049"/>
		<path fill="#040507" d="M617.488,326.838c0,1.641-0.097,7.338-6.757,7.338h-0.482v7.043h1.929c8.69,0,12.549-4.729,12.549-13.607
			v-53.965h-7.239V326.838z"/>
		<path fill="#040507" d="M671.243,253.959l-14.671,67.572h7.049l3.279-15.061h15.253l3.376,15.061h7.049l-14.767-67.572H671.243z
			 M667.868,300.293l6.466-31.855l6.76,31.855H667.868z"/>
		<polygon fill="#040507" points="730.912,273.647 723.286,273.647 709.289,297.592 709.289,253.959 702.051,253.959 
			702.051,321.532 709.289,321.532 709.289,308.016 714.792,298.844 725.409,321.532 733.229,321.532 719.232,292.475 		"/>
		<path fill="#040507" d="M753.948,272.877c-7.82,0-13.997,4.828-13.997,12.938h6.948c0.774-4.732,4.058-5.889,6.566-5.889
			c4.824,0,6.756,3.766,6.756,6.467v7.043c-4.149-0.383-5.695-0.383-6.756-0.383c-10.718,0-13.997,5.693-13.997,15.83
			c0,7.627,2.221,13.42,9.843,13.42c6.081,0,8.401-2.701,10.813-5.504h0.097v4.732h7.236V287.26
			C767.458,281.083,765.045,272.877,753.948,272.877z M760.221,307.149c0,5.02-4.344,8.975-7.338,8.975
			c-4.149,0-6.178-1.834-6.178-8.59c0-7.049,4.444-9.268,8.59-9.268c1.16,0,2.899,0.193,4.926,0.48V307.149z"/>
		<path fill="#040507" d="M798.592,278.381c-3.086-4.15-7.044-5.504-10.322-5.504c-8.498,0-10.043,6.467-10.043,11.104V311.2
			c0,4.635,1.545,11.102,10.043,11.102c3.278,0,7.236-1.352,10.322-5.502v4.732h7.242v-67.572h-7.242V278.381z M798.592,306.471
			c0,2.99-1.154,8.781-7.044,8.781c-4.637,0-6.081-3.764-6.081-7.428v-20.469c0-3.664,1.444-7.43,6.081-7.43
			c5.89,0,7.044,5.791,7.044,8.781V306.471z"/>
		<path fill="#040507" d="M829.882,272.877c-11.487,0-13.515,9.559-13.515,13.322v22.203c0,4.148,2.027,13.898,13.997,13.898
			c11.103,0,13.318-8.781,13.318-13.516v-0.672h-7.236v0.578c0,3.957-1.835,6.561-6.082,6.561c-4.44,0-6.755-2.215-6.755-7.332
			v-7.627h20.27v-13.709C843.879,282.436,841.276,272.877,829.882,272.877z M836.638,294.885H823.61v-7.818
			c0-2.99,1.444-7.141,6.562-7.141c5.019,0,6.467,3.668,6.467,6.756V294.885z"/>
		<path fill="#040507" d="M891.357,272.877c-4.149,0-7.049,1.256-10.429,5.504c-2.219-3.766-4.825-5.504-9.457-5.504
			c-2.898,0-6.755,0.967-10.231,5.504v-4.734H854v47.885h7.24v-32.822c0-4.441,2.123-8.783,6.757-8.783
			c4.827,0,5.983,4.439,5.983,7.43v34.176h7.238v-32.822c0-4.633,2.127-8.783,6.663-8.783c4.343,0,6.081,3.285,6.081,7.43v34.176
			h7.24v-37.359C901.203,277.418,898.016,272.877,891.357,272.877z"/>
		<rect x="912.093" y="255.307" fill="#040507" width="7.237" height="7.049"/>
		<rect x="912.092" y="273.647" fill="#040507" width="7.237" height="47.885"/>
		<rect x="930.11" y="255.307" fill="#040507" width="7.237" height="7.049"/>
		<rect x="930.11" y="273.647" fill="#040507" width="7.237" height="47.885"/>
		<polygon fill="#040507" points="1000.729,304.25 981.619,253.959 974.377,253.959 974.377,321.532 981.619,321.532 
			981.619,272.204 1000.729,321.532 1007.971,321.532 1007.971,253.959 1000.729,253.959 		"/>
		<path fill="#040507" d="M1033.021,272.877c-7.82,0-13.998,4.828-13.998,12.938h6.953c0.77-4.732,4.054-5.889,6.562-5.889
			c4.829,0,6.756,3.766,6.756,6.467v7.043c-4.146-0.383-5.694-0.383-6.756-0.383c-10.717,0-13.996,5.693-13.996,15.83
			c0,7.627,2.221,13.42,9.847,13.42c6.082,0,8.396-2.701,10.81-5.504h0.096v4.732h7.241V287.26
			C1046.535,281.083,1044.123,272.877,1033.021,272.877z M1039.293,307.149c0,5.02-4.343,8.975-7.333,8.975
			c-4.149,0-6.178-1.834-6.178-8.59c0-7.049,4.44-9.268,8.59-9.268c1.16,0,2.899,0.193,4.921,0.48V307.149z"/>
		<path fill="#040507" d="M1077.67,306.471c0,2.99-1.159,8.783-7.049,8.783c-4.633,0-6.08-3.766-6.08-7.432v-34.176h-7.238V311.2
			c0,4.637,1.542,11.104,10.04,11.104c3.278,0,7.235-1.354,10.327-5.504v4.732h7.236v-47.885h-7.236V306.471z"/>
		<polygon fill="#040507" points="1124.673,273.647 1117.047,273.647 1103.05,297.592 1103.05,253.959 1095.809,253.959 
			1095.809,321.532 1103.05,321.532 1103.05,308.016 1108.553,298.844 1119.17,321.532 1126.991,321.532 1112.994,292.475 		"/>
	</g>
</g>
<g id="EN">
	<g>
		<rect x="386.624" y="152.851" width="7.238" height="67.551"/>
		<path d="M431.497,220.399V182.86c0-4.629-1.544-11.097-10.033-11.097c-3.282,0-7.239,1.352-10.326,5.503v-4.73h-7.24v47.863h7.24
			v-32.81c0-2.992,1.156-8.779,7.043-8.779c4.628,0,6.076,3.761,6.076,7.427v34.162H431.497z"/>
		<path d="M469.255,207.468c0-8.009-3.763-10.807-8.205-13.027l-5.979-2.896c-3.088-1.448-5.696-2.987-5.696-6.753
			c0-4.826,2.607-6.178,6.179-6.178c2.991,0,5.979,1.16,6.461,6.564h7.24c-0.192-5.986-2.797-13.413-13.315-13.413
			c-9.556,0-13.799,5.884-13.799,12.352c0,4.923,0.865,9.266,7.911,12.641l5.888,2.896c4.919,2.412,6.076,4.248,6.076,7.814
			c0,4.148-1.93,6.949-6.944,6.949c-3.765,0-6.082-1.835-6.467-6.949h-7.337c0.198,6.66,3.286,13.705,13.992,13.705
			C467.808,221.173,469.255,211.425,469.255,207.468z"/>
		<path d="M491.218,212.678c-1.834-1.544-1.931-4.147-1.931-5.305v-29.049h6.757v-5.788h-6.757v-14.57h-7.239v14.57h-5.111v5.788
			h5.111v29.914c0,2.802,0.096,6.562,2.509,9.169c2.606,2.896,7.143,2.992,9.846,2.992h2.123v-6.564h-0.771
			C494.597,213.835,492.57,213.835,491.218,212.678z"/>
		<rect x="505.872" y="172.538" width="7.239" height="47.863"/>
		<rect x="505.867" y="154.198" width="7.238" height="7.045"/>
		<path d="M541.617,213.835h-0.771c-1.16,0-3.186,0-4.538-1.157c-1.833-1.544-1.93-4.147-1.93-5.305v-29.049h6.756v-5.788h-6.756
			v-14.57h-7.239v14.57h-5.111v5.788h5.111v29.914c0,2.802,0.098,6.562,2.511,9.169c2.605,2.896,7.141,2.992,9.845,2.992h2.123
			V213.835z"/>
		<path d="M571.224,205.345c0,2.994-1.154,8.781-7.041,8.781c-4.635,0-6.079-3.765-6.079-7.43v-34.16h-7.238v37.538
			c0,4.63,1.543,11.097,10.034,11.097c3.283,0,7.239-1.352,10.324-5.502v4.73h7.24v-47.863h-7.24V205.345z"/>
		<path d="M605.107,220.399v-6.564h-0.771c-1.159,0-3.186,0-4.538-1.157c-1.833-1.544-1.929-4.147-1.929-5.305v-29.049h6.756v-5.788
			h-6.756v-14.57h-7.24v14.57h-5.111v5.788h5.111v29.914c0,2.802,0.096,6.562,2.509,9.169c2.607,2.896,7.143,2.992,9.847,2.992
			H605.107z"/>
		<path d="M627.274,171.766c-11.483,0-13.51,9.552-13.51,13.313v22.195c0,4.15,2.027,13.898,13.993,13.898
			c11.1,0,13.32-8.783,13.32-13.514v-0.675h-7.239v0.579c0,3.957-1.834,6.564-6.081,6.564c-4.437,0-6.754-2.221-6.754-7.332v-7.625
			h20.266v-13.703C641.269,181.317,638.664,171.766,627.274,171.766z M634.031,193.766h-13.028v-7.815
			c0-2.992,1.449-7.142,6.564-7.142c5.015,0,6.463,3.667,6.463,6.753V193.766z"/>
		<path d="M701.785,207.47v-22.293c0-3.473-2.023-13.413-13.795-13.413c-11.775,0-13.799,9.94-13.799,13.509v22.197
			c0,3.856,2.023,13.701,13.799,13.701C699.761,221.171,701.785,211.326,701.785,207.47z M681.425,206.31v-19.686
			c0-5.309,2.992-7.815,6.564-7.815c3.57,0,6.559,2.507,6.559,7.815v19.686c0,5.213-2.504,7.82-6.559,7.82
			C683.74,214.13,681.425,211.326,681.425,206.31z"/>
		<path d="M721.093,220.397v-42.072h8.008v-5.791h-8.104v-6.85c0-4.633,2.414-6.563,6.174-6.563h2.025v-6.271h-2.219
			c-10.711,0-13.119,5.401-13.119,12.448v7.235h-5.211v5.791h5.211v42.072H721.093z"/>
		<path d="M791.257,169.931c0-5.02-0.391-9.841-4.826-13.992c-2.699-2.605-6.561-4.053-11.387-4.053s-8.684,1.447-11.387,4.053
			c-4.443,4.151-4.828,8.973-4.828,13.992v33.389c0,5.02,0.385,9.842,4.828,13.992c2.703,2.605,6.561,4.053,11.387,4.053
			s8.688-1.447,11.387-4.053c4.436-4.15,4.826-8.973,4.826-13.992V169.931z M784.017,204.864c0,2.408-0.195,4.822-2.508,7.139
			c-1.35,1.256-3.57,2.316-6.465,2.316c-2.896,0-5.113-1.061-6.467-2.316c-2.318-2.316-2.508-4.73-2.508-7.139v-36.477
			c0-2.414,0.189-4.827,2.508-7.047c1.354-1.349,3.57-2.41,6.467-2.41c2.895,0,5.115,1.062,6.465,2.41
			c2.312,2.22,2.508,4.633,2.508,7.047V204.864z"/>
		<path d="M809.97,192.513c0-10.522,6.658-12.645,11.967-12.645h1.346v-8.104c-3.76,0.096-8.201,1.352-13.312,8.3v-7.527h-7.236
			v47.863h7.236V192.513z"/>
		<path d="M843.458,233.522c-2.516,0-5.791-0.578-6.564-5.887h-6.945c0,8.688,5.402,12.933,13.215,12.933
			c11.098,0,14.385-8.494,14.385-14.38v-53.652h-7.24v4.73c-3.092-4.151-7.043-5.503-10.326-5.503
			c-8.49,0-10.033,6.468-10.033,11.097v26.731c0,4.63,1.543,11.097,10.033,11.097c3.283,0,7.234-1.35,10.326-5.502v11.873
			C850.308,229.759,848.285,233.522,843.458,233.522z M843.265,213.644c-4.633,0-6.082-3.762-6.082-7.43v-19.977
			c0-3.666,1.449-7.431,6.082-7.431c5.883,0,7.043,5.791,7.043,8.783v17.274C850.308,207.856,849.148,213.644,843.265,213.644z"/>
		<path d="M882.505,171.766c-7.82,0-13.998,4.821-13.998,12.931h6.949c0.773-4.73,4.055-5.888,6.566-5.888
			c4.82,0,6.752,3.763,6.752,6.466v7.043c-4.148-0.387-5.697-0.387-6.752-0.387c-10.713,0-13.996,5.695-13.996,15.827
			c0,7.624,2.217,13.415,9.844,13.415c6.078,0,8.396-2.705,10.811-5.502h0.094v4.727h7.238V186.14
			C896.013,179.966,893.601,171.766,882.505,171.766z M888.775,206.02c0,5.019-4.344,8.978-7.334,8.978
			c-4.154,0-6.176-1.834-6.176-8.591c0-7.044,4.434-9.263,8.59-9.263c1.154,0,2.895,0.192,4.92,0.482V206.02z"/>
		<path d="M924.865,171.764c-3.283,0-7.238,1.352-10.326,5.503v-4.73h-7.236v47.863h7.236v-32.81c0-2.992,1.156-8.779,7.043-8.779
			c4.629,0,6.076,3.761,6.076,7.427v34.162h7.24V182.86C934.898,178.231,933.357,171.764,924.865,171.764z"/>
		<rect x="946.152" y="154.198" width="7.236" height="7.045"/>
		<rect x="946.152" y="172.538" width="7.236" height="47.863"/>
		<path d="M992.265,207.663v-1.93h-7.24v0.578c0,5.213-2.506,7.814-6.752,7.814c-4.441,0-6.756-2.699-6.756-7.814v-19.688
			c0-5.404,2.986-7.817,6.756-7.817c3.662,0,6.752,2.413,6.752,7.817v0.676h7.24v-2.123c0-4.536-2.609-13.413-13.992-13.413
			c-11.971,0-13.996,9.843-13.996,13.8v21.709c0,4.154,2.025,13.9,13.996,13.9C989.369,221.173,992.265,212.388,992.265,207.663z"/>
		<path d="M1054.703,205.251v-2.51h-7.33v2.123c0,7.813-4.633,9.455-8.4,9.455c-6.756,0-7.812-6.365-7.812-8.778v-36.383
			c0-3.667,0.676-10.228,8.297-10.228c6.951,0,7.916,6.078,7.916,8.491v3.57h7.041v-4.344c0-10.71-6.949-14.763-15.338-14.763
			c-9.846,0-15.154,7.045-15.154,14.667v39.954c0,3.855,1.256,14.857,14.766,14.857
			C1050.265,221.364,1054.703,214.899,1054.703,205.251z"/>
		<path d="M1084.851,220.399h7.24v-37.537c0-4.635-1.543-11.097-10.035-11.097c-3.283,0-7.238,1.352-10.326,5.497v-24.412h-7.236
			v67.549h7.236v-32.81c0-2.992,1.158-8.783,7.043-8.783c4.631,0,6.078,3.765,6.078,7.433V220.399z"/>
		<path d="M1128.376,207.659v-0.675h-7.234v0.579c0,3.957-1.83,6.564-6.074,6.564c-4.441,0-6.756-2.221-6.756-7.332v-7.625h20.266
			v-13.703c0-4.15-2.609-13.702-13.992-13.702c-11.488,0-13.514,9.552-13.514,13.313v22.195c0,4.15,2.025,13.898,13.996,13.898
			C1126.164,221.173,1128.376,212.39,1128.376,207.659z M1108.312,185.95c0-2.992,1.447-7.142,6.557-7.142
			c5.021,0,6.469,3.667,6.469,6.753v8.204h-13.025V185.95z"/>
		<path d="M1166.314,220.399v-32.81c0-4.634,2.125-8.779,6.656-8.779c4.344,0,6.084,3.282,6.084,7.427v34.162h7.236v-37.346
			c0-6.753-3.186-11.29-9.842-11.29c-4.15,0-7.045,1.255-10.424,5.503c-2.221-3.766-4.822-5.503-9.461-5.503
			c-2.895,0-6.752,0.966-10.225,5.503v-4.73h-7.236v47.863h7.236v-32.81c0-4.437,2.123-8.779,6.756-8.779
			c4.828,0,5.984,4.436,5.984,7.427v34.162H1166.314z"/>
		<rect x="1195.667" y="154.198" width="7.234" height="7.045"/>
		<rect x="1195.664" y="172.538" width="7.234" height="47.863"/>
		<path d="M1240.562,207.468c0-8.009-3.768-10.807-8.203-13.027l-5.988-2.896c-3.088-1.448-5.689-2.987-5.689-6.753
			c0-4.826,2.602-6.178,6.172-6.178c2.998,0,5.986,1.16,6.471,6.564h7.238c-0.195-5.986-2.801-13.413-13.316-13.413
			c-9.559,0-13.801,5.884-13.801,12.352c0,4.923,0.863,9.266,7.91,12.641l5.891,2.896c4.916,2.412,6.078,4.248,6.078,7.814
			c0,4.148-1.932,6.949-6.953,6.949c-3.76,0-6.074-1.835-6.463-6.949h-7.33c0.193,6.66,3.281,13.705,13.992,13.705
			C1239.115,221.173,1240.562,211.425,1240.562,207.468z"/>
		<path d="M1260.64,212.678c-1.836-1.544-1.932-4.147-1.932-5.305v-29.049h6.758v-5.788h-6.758v-14.57h-7.234v14.57h-5.117v5.788
			h5.117v29.914c0,2.802,0.09,6.562,2.504,9.169c2.605,2.896,7.145,2.992,9.844,2.992h2.127v-6.564h-0.773
			C1264.019,213.835,1261.99,213.835,1260.64,212.678z"/>
		<path d="M1282.531,180.063v-7.527h-7.236v47.863h7.236v-27.887c0-10.522,6.658-12.645,11.967-12.645h1.346v-8.104
			C1292.085,171.859,1287.644,173.115,1282.531,180.063z"/>
		<path d="M1323.113,172.536l-7.338,34.837h-0.191l-9.65-34.837h-7.627l14.094,47.189l-1.354,5.695
			c-1.354,5.689-2.801,8.102-7.334,8.102h-1.35v6.56h1.641c7.432,0,10.807-2.89,12.834-11.191l13.604-56.355H1323.113z"/>
		<path d="M400.9,253.987h-14.668v67.551h7.239v-27.887h8.877c9.653,0,15.25-7.82,15.25-16.504v-5.982
			C417.598,261.899,413.062,253.987,400.9,253.987z M410.358,278.303c0,4.73-3.378,9.17-10.039,9.17h-6.849V260.26h6.946
			c6.757,0,9.941,3.857,9.941,10.033V278.303z"/>
		<path d="M438.74,272.899c-11.776,0-13.8,9.943-13.8,13.51v22.197c0,3.857,2.023,13.701,13.8,13.701
			c11.771,0,13.798-9.844,13.798-13.701v-22.293C452.538,282.842,450.511,272.899,438.74,272.899z M445.298,307.446
			c0,5.213-2.505,7.82-6.559,7.82c-4.247,0-6.563-2.803-6.563-7.82V287.76c0-5.309,2.991-7.816,6.563-7.816
			c3.57,0,6.559,2.508,6.559,7.816V307.446z"/>
		<path d="M470.649,309.571v-55.582h-7.239v56.932c0,6.273,4.055,10.617,11.39,10.617h2.216v-6.658h-1.058
			C471.519,314.879,470.649,311.5,470.649,309.571z"/>
		<rect x="486.072" y="255.336" width="7.239" height="7.043"/>
		<rect x="486.072" y="273.676" width="7.239" height="47.863"/>
		<path d="M517.269,279.75c2.992,0,5.98,1.16,6.463,6.564h7.238c-0.192-5.984-2.799-13.414-13.315-13.414
			c-9.556,0-13.799,5.885-13.799,12.352c0,4.924,0.865,9.268,7.91,12.643l5.889,2.895c4.919,2.414,6.077,4.248,6.077,7.814
			c0,4.15-1.931,6.949-6.946,6.949c-3.764,0-6.082-1.834-6.467-6.949h-7.336c0.198,6.66,3.286,13.705,13.993,13.705
			c12.547,0,13.995-9.748,13.995-13.705c0-8.008-3.764-10.805-8.204-13.027l-5.98-2.895c-3.09-1.447-5.696-2.988-5.696-6.754
			C511.09,281.102,513.695,279.75,517.269,279.75z"/>
		<path d="M558.548,272.901c-3.281,0-7.238,1.354-10.325,5.498v-24.41h-7.24v67.549h7.24v-32.811c0-2.992,1.156-8.783,7.043-8.783
			c4.628,0,6.076,3.764,6.076,7.434v34.16h7.24v-37.539C568.583,279.364,567.038,272.901,558.548,272.901z"/>
		<path d="M614.72,253.989l-14.669,67.551h7.047l3.283-15.055h15.241l3.379,15.055h7.047l-14.766-67.551H614.72z M611.346,300.307
			l6.463-31.844l6.756,31.844H611.346z"/>
		<path d="M656.802,272.899c-11.965,0-13.992,9.846-13.992,13.803v21.709c0,4.152,2.027,13.898,13.992,13.898
			c11.101,0,13.996-8.783,13.996-13.51v-1.928h-7.24v0.576c0,5.213-2.509,7.814-6.756,7.814c-4.436,0-6.752-2.699-6.752-7.814
			V287.76c0-5.404,2.99-7.816,6.752-7.816c3.668,0,6.756,2.412,6.756,7.816v0.676h7.24v-2.123
			C670.798,281.778,668.193,272.899,656.802,272.899z"/>
		<path d="M692.612,272.901c-7.814,0-13.992,4.824-13.992,12.932h6.951c0.771-4.73,4.053-5.889,6.559-5.889
			c4.825,0,6.757,3.764,6.757,6.467v7.045c-4.15-0.389-5.696-0.389-6.757-0.389c-10.711,0-13.993,5.697-13.993,15.828
			c0,7.623,2.222,13.414,9.847,13.414c6.076,0,8.394-2.705,10.807-5.5h0.097v4.727h7.234v-34.258
			C706.121,281.102,703.712,272.901,692.612,272.901z M698.886,307.157c0,5.02-4.344,8.979-7.333,8.979
			c-4.154,0-6.178-1.836-6.178-8.592c0-7.043,4.437-9.264,8.592-9.264c1.153,0,2.892,0.193,4.919,0.484V307.157z"/>
		<path d="M737.677,278.403c-3.094-4.15-7.045-5.504-10.328-5.504c-8.49,0-10.033,6.469-10.033,11.098v27.215
			c0,4.631,1.543,11.096,10.033,11.096c3.283,0,7.234-1.35,10.328-5.5v4.73h7.238v-67.551h-7.238V278.403z M737.677,306.483
			c0,2.992-1.162,8.779-7.045,8.779c-4.633,0-6.082-3.764-6.082-7.43v-20.457c0-3.668,1.449-7.432,6.082-7.432
			c5.883,0,7.045,5.791,7.045,8.783V306.483z"/>
		<path d="M767.41,272.901c-11.488,0-13.514,9.553-13.514,13.314v22.197c0,4.148,2.025,13.896,13.996,13.896
			c11.096,0,13.311-8.781,13.311-13.514v-0.674h-7.236v0.578c0,3.957-1.828,6.564-6.074,6.564c-4.441,0-6.756-2.221-6.756-7.332
			v-7.625h20.266v-13.705C781.402,282.454,778.792,272.901,767.41,272.901z M774.162,294.903h-13.025v-7.816
			c0-2.99,1.447-7.143,6.557-7.143c5.021,0,6.469,3.668,6.469,6.756V294.903z"/>
		<path d="M827.343,272.899c-4.15,0-7.045,1.256-10.424,5.504c-2.221-3.764-4.822-5.504-9.461-5.504
			c-2.895,0-6.752,0.967-10.225,5.504v-4.729h-7.236v47.863h7.236v-32.811c0-4.436,2.123-8.781,6.756-8.781
			c4.828,0,5.984,4.438,5.984,7.43v34.162h7.234v-32.811c0-4.633,2.123-8.781,6.656-8.781c4.344,0,6.084,3.283,6.084,7.43v34.162
			h7.236v-37.346C837.185,277.438,834,272.899,827.343,272.899z"/>
		<path d="M860.55,308.51h-0.193l-9.646-34.836h-7.629l14.094,47.188l-1.354,5.695c-1.354,5.689-2.801,8.104-7.334,8.104h-1.35
			v6.561h1.641c7.432,0,10.807-2.893,12.834-11.193l13.604-56.354h-7.33L860.55,308.51z"/>
		<path d="M918.656,272.899c-11.771,0-13.799,9.943-13.799,13.51v22.197c0,3.857,2.027,13.701,13.799,13.701
			c11.775,0,13.801-9.844,13.801-13.701v-22.293C932.457,282.842,930.431,272.899,918.656,272.899z M925.22,307.446
			c0,5.213-2.512,7.82-6.564,7.82c-4.248,0-6.561-2.803-6.561-7.82V287.76c0-5.309,2.99-7.816,6.561-7.816s6.564,2.508,6.564,7.816
			V307.446z"/>
		<path d="M944.525,266.436v7.236h-5.215v5.791h5.215v42.072h7.238v-42.072h8.006v-5.791h-8.104v-6.85
			c0-4.635,2.414-6.564,6.174-6.564h2.027v-6.27h-2.221C946.939,253.989,944.525,259.389,944.525,266.436z"/>
		<path d="M1009.384,284.479l-6.18-2.215c-1.641-0.58-3.955-1.742-5.309-3.67c-1.641-2.604-1.736-6.08-1.736-8.107
			c0-2.605,0.197-5.787,2.508-8.201c1.838-1.832,4.152-2.217,5.891-2.217c3.469,0,5.309,1.443,6.465,2.799
			c1.83,2.412,2.025,5.594,2.025,7.33v1.932h7.238v-2.316c0-10.807-6.18-16.793-15.439-16.793c-4.248,0-8.109,0.967-11.096,3.861
			c-2.805,2.607-4.826,6.656-4.826,12.061v2.029c0,3.281,0.09,6.561,1.35,9.551c1.828,4.248,5.117,6.08,8.393,7.238l7.338,2.605
			c1.158,0.389,3.861,1.447,5.5,3.67c1.637,2.023,1.932,5.4,1.932,8.008v2.605c0,2.318-0.102,5.502-1.932,7.814
			c-1.066,1.256-2.996,2.992-7.43,2.992c-1.641,0-4.537-0.289-6.664-2.795c-1.639-2.125-1.93-5.309-1.93-7.143v-1.932h-7.232V306
			c0,0.871,0,7.332,2.889,11.193c2.131,2.896,6.377,5.307,13.031,5.307c5.406,0,9.648-1.736,12.061-4.246
			c2.609-2.895,4.441-7.818,4.441-14.475v-2.412c0-4.244-0.293-7.914-2.703-11.193
			C1015.748,287.086,1012.177,285.446,1009.384,284.479z"/>
		<path d="M1043.166,272.899c-11.971,0-13.994,9.846-13.994,13.803v21.709c0,4.152,2.023,13.898,13.994,13.898
			c11.098,0,13.992-8.783,13.992-13.51v-1.928h-7.238v0.576c0,5.213-2.508,7.814-6.754,7.814c-4.439,0-6.756-2.699-6.756-7.814
			V287.76c0-5.404,2.986-7.816,6.756-7.816c3.662,0,6.754,2.412,6.754,7.816v0.676h7.238v-2.123
			C1057.158,281.778,1054.55,272.899,1043.166,272.899z"/>
		<rect x="1066.83" y="255.336" width="7.236" height="7.043"/>
		<rect x="1066.83" y="273.676" width="7.236" height="47.863"/>
		<path d="M1096.56,272.901c-11.488,0-13.514,9.553-13.514,13.314v22.197c0,4.148,2.025,13.896,13.996,13.896
			c11.096,0,13.309-8.781,13.309-13.514v-0.674h-7.234v0.578c0,3.957-1.83,6.564-6.074,6.564c-4.441,0-6.756-2.221-6.756-7.332
			v-7.625h20.266v-13.705C1110.552,282.454,1107.943,272.901,1096.56,272.901z M1103.312,294.903h-13.025v-7.816
			c0-2.99,1.447-7.143,6.557-7.143c5.021,0,6.469,3.668,6.469,6.756V294.903z"/>
		<path d="M1138.642,272.899c-3.285,0-7.24,1.354-10.328,5.504v-4.729h-7.234v47.863h7.234v-32.811c0-2.992,1.158-8.781,7.043-8.781
			c4.631,0,6.078,3.762,6.078,7.43v34.162h7.238v-37.541C1148.673,279.368,1147.132,272.899,1138.642,272.899z"/>
		<path d="M1173.585,272.899c-11.971,0-13.996,9.846-13.996,13.803v21.709c0,4.152,2.025,13.898,13.996,13.898
			c11.096,0,13.992-8.783,13.992-13.51v-1.928h-7.24v0.576c0,5.213-2.506,7.814-6.752,7.814c-4.441,0-6.756-2.699-6.756-7.814
			V287.76c0-5.404,2.984-7.816,6.756-7.816c3.66,0,6.752,2.412,6.752,7.816v0.676h7.24v-2.123
			C1187.578,281.778,1184.968,272.899,1173.585,272.899z"/>
		<path d="M1208.621,272.901c-11.488,0-13.514,9.553-13.514,13.314v22.197c0,4.148,2.025,13.896,13.996,13.896
			c11.096,0,13.309-8.781,13.309-13.514v-0.674h-7.234v0.578c0,3.957-1.828,6.564-6.074,6.564c-4.441,0-6.758-2.221-6.758-7.332
			v-7.625h20.268v-13.705C1222.613,282.454,1220.003,272.901,1208.621,272.901z M1215.373,294.903h-13.027v-7.816
			c0-2.99,1.449-7.143,6.557-7.143c5.023,0,6.471,3.668,6.471,6.756V294.903z"/>
		<path d="M1244.228,279.75c2.998,0,5.986,1.16,6.471,6.564h7.238c-0.195-5.984-2.801-13.414-13.316-13.414
			c-9.559,0-13.801,5.885-13.801,12.352c0,4.924,0.863,9.268,7.91,12.643l5.891,2.895c4.916,2.414,6.078,4.248,6.078,7.814
			c0,4.15-1.932,6.949-6.953,6.949c-3.76,0-6.074-1.834-6.463-6.949h-7.33c0.193,6.66,3.279,13.705,13.992,13.705
			c12.545,0,13.992-9.748,13.992-13.705c0-8.008-3.766-10.805-8.205-13.027l-5.986-2.895c-3.088-1.447-5.689-2.988-5.689-6.754
			C1238.056,281.102,1240.658,279.75,1244.228,279.75z"/>
	</g>
</g>
</svg>
